<svg width="20" height="16" viewBox="0 0 20 16" fill="none" xmlns="http://www.w3.org/2000/svg">
<g clip-path="url(#clip0_2_11947)">
<path d="M19.0978 7.91986C19.0978 7.67246 19.0001 7.45437 18.8048 7.26557L12.3302 0.810486C12.226 0.706319 12.1202 0.63145 12.0128 0.585876C11.9054 0.540304 11.7931 0.517517 11.6759 0.517517C11.435 0.517517 11.2332 0.59727 11.0704 0.756775C10.9077 0.91628 10.8263 1.11648 10.8263 1.35736C10.8263 1.47455 10.8458 1.58685 10.8849 1.69428C10.924 1.8017 10.9826 1.89447 11.0607 1.9726L13.2482 4.19916L17.1251 7.73432L17.3204 7.24604L14.1759 7.05072H1.82239C1.56848 7.05072 1.36178 7.1321 1.20227 7.29486C1.04277 7.45762 0.963013 7.66595 0.963013 7.91986C0.963013 8.17376 1.04277 8.3821 1.20227 8.54486C1.36178 8.70762 1.56848 8.789 1.82239 8.789H14.1759L17.3204 8.59369L17.1251 8.11518L13.2482 11.6405L11.0607 13.8671C10.9826 13.9453 10.924 14.038 10.8849 14.1454C10.8458 14.2529 10.8263 14.3652 10.8263 14.4823C10.8263 14.7233 10.9077 14.9235 11.0704 15.0829C11.2332 15.2425 11.435 15.3222 11.6759 15.3222C11.9103 15.3222 12.1219 15.2311 12.3107 15.0487L18.8048 8.57416C19.0001 8.38536 19.0978 8.16726 19.0978 7.91986Z" fill="black" fill-opacity="0.85"/>
</g>
<defs>
<clipPath id="clip0_2_11947">
<rect width="18.1348" height="14.8145" fill="white" transform="translate(0.963013 0.517517)"/>
</clipPath>
</defs>
</svg>
