<svg width="4" height="8" viewBox="0 0 10 24" fill="none" xmlns="http://www.w3.org/2000/svg">
<g>
<path d="M9.6178 8.62298C9.6178 8.49929 9.59338 8.38373 9.54456 8.2763C9.49573 8.16888 9.42574 8.0696 9.3346 7.97845L1.60022 0.400329C1.42444 0.231059 1.20959 0.146423 0.955689 0.146423C0.792928 0.146423 0.643188 0.185486 0.50647 0.263611C0.369751 0.341736 0.262329 0.44753 0.184205 0.580993C0.106079 0.714457 0.0670166 0.865825 0.0670166 1.0351C0.0670166 1.27598 0.151652 1.48757 0.320923 1.66986L7.4303 8.62298L0.320923 15.5761C0.151652 15.7584 0.0670166 15.97 0.0670166 16.2109C0.0670166 16.3802 0.106079 16.5316 0.184205 16.665C0.262329 16.7985 0.369751 16.9043 0.50647 16.9823C0.643188 17.0605 0.792928 17.0995 0.955689 17.0995C1.20959 17.0995 1.42444 17.0117 1.60022 16.8359L9.3346 9.26751C9.42574 9.17637 9.49573 9.07709 9.54456 8.96966C9.59338 8.86224 9.6178 8.74668 9.6178 8.62298Z" fill="#999999"/>
</g>
</svg>
