<svg width="21" height="21" viewBox="0 0 21 21" fill="none" xmlns="http://www.w3.org/2000/svg">
<path d="M10.4504 20.8535C11.8111 20.8535 13.0921 20.5931 14.2932 20.0722C15.4944 19.5514 16.554 18.832 17.4719 17.914C18.3899 16.9961 19.1093 15.9365 19.6301 14.7353C20.151 13.5342 20.4114 12.2533 20.4114 10.8926C20.4114 9.53187 20.151 8.25094 19.6301 7.04977C19.1093 5.8486 18.3899 4.78903 17.4719 3.87106C16.554 2.95309 15.4928 2.23369 14.2883 1.71286C13.0839 1.19203 11.8014 0.93161 10.4407 0.93161C9.08 0.93161 7.79908 1.19203 6.5979 1.71286C5.39673 2.23369 4.33879 2.95309 3.42407 3.87106C2.50936 4.78903 1.79159 5.8486 1.27075 7.04977C0.749919 8.25094 0.489502 9.53187 0.489502 10.8926C0.489502 12.2533 0.749919 13.5342 1.27075 14.7353C1.79159 15.9365 2.51099 16.9961 3.42895 17.914C4.34693 18.832 5.4065 19.5514 6.60766 20.0722C7.80884 20.5931 9.08976 20.8535 10.4504 20.8535ZM10.4504 19.1933C9.2981 19.1933 8.22062 18.9785 7.21802 18.5488C6.21542 18.1191 5.33488 17.5251 4.57641 16.7666C3.81795 16.0081 3.22551 15.1276 2.79907 14.125C2.37264 13.1224 2.15942 12.0449 2.15942 10.8926C2.15942 9.7402 2.37264 8.66273 2.79907 7.66013C3.22551 6.65752 3.81633 5.77536 4.57153 5.01364C5.32674 4.25192 6.20565 3.65784 7.20825 3.23141C8.21086 2.80498 9.28833 2.59177 10.4407 2.59177C11.593 2.59177 12.6705 2.80498 13.6731 3.23141C14.6757 3.65784 15.5579 4.25192 16.3196 5.01364C17.0813 5.77536 17.677 6.65752 18.1067 7.66013C18.5364 8.66273 18.7512 9.7402 18.7512 10.8926C18.7512 12.0449 18.538 13.1224 18.1116 14.125C17.6851 15.1276 17.0927 16.0081 16.3342 16.7666C15.5757 17.5251 14.6936 18.1191 13.6877 18.5488C12.6819 18.9785 11.6028 19.1933 10.4504 19.1933ZM7.11059 15.0234C7.33846 15.0234 7.52726 14.942 7.677 14.7793L10.4407 12.0058L13.2239 14.7793C13.3802 14.942 13.5657 15.0234 13.7805 15.0234C13.9954 15.0234 14.1793 14.9453 14.3323 14.789C14.4853 14.6327 14.5618 14.4472 14.5618 14.2324C14.5618 14.0175 14.4837 13.832 14.3274 13.6757L11.554 10.9023L14.3372 8.10934C14.4934 7.95309 14.5715 7.7708 14.5715 7.56247C14.5715 7.34762 14.495 7.1637 14.342 7.01071C14.189 6.85772 14.0051 6.78122 13.7903 6.78122C13.5884 6.78122 13.4094 6.8626 13.2532 7.02536L10.4407 9.80856L7.65747 7.03513C7.51424 6.87888 7.33195 6.80075 7.11059 6.80075C6.89575 6.80075 6.71184 6.87562 6.55884 7.02536C6.40584 7.1751 6.32934 7.35739 6.32934 7.57223C6.32934 7.78708 6.40747 7.96937 6.56372 8.11911L9.33716 10.9023L6.56372 13.6855C6.40747 13.8352 6.32934 14.0175 6.32934 14.2324C6.32934 14.4472 6.40584 14.6327 6.55884 14.789C6.71184 14.9453 6.89575 15.0234 7.11059 15.0234Z" fill="#3369f3"/>
</svg>
