<?xml version="1.0" encoding="UTF-8" standalone="no"?>
<svg
   width="19.863192"
   height="19.859722"
   viewBox="0 0 19.863192 19.859722"
   fill="none"
   version="1.1"
   id="svg230"
   xmlns="http://www.w3.org/2000/svg"
   xmlns:svg="http://www.w3.org/2000/svg">
  <defs
     id="defs234" />
  <path
     d="m 16.976781,16.973349 c 0.96216,-0.96216 1.683833,-2.052095 2.164807,-3.269733 0.481116,-1.217638 0.721673,-2.47558 0.721603,-3.7737584 C 19.863261,8.6316808 19.622704,7.3737379 19.141588,6.1561 18.660614,4.9384621 17.939012,3.8485984 16.976851,2.8864382 16.01467,1.9242568 14.924785,1.2026331 13.707098,0.72160957 12.489481,0.24051535 11.231559,-2.1190939e-5 9.9333318,1.9061279e-8 8.6351761,-4.9480939e-5 7.3761018,0.24163965 6.1561093,0.72506737 4.9361874,1.2084243 3.8451782,1.931144 2.883018,2.8933042 1.9208578,3.8554644 1.1992554,4.9453564 0.71817529,6.1630014 0.23710224,7.3806392 -0.00228169,8.6374084 1.6412133e-5,9.9333156 0.00232141,11.229216 0.24401068,12.485986 0.72507659,13.70363 1.206149,14.921269 1.9277606,16.011166 2.889942,16.973347 c 0.9621602,0.962161 2.0520359,1.683751 3.269625,2.164774 1.2176662,0.481087 2.4756091,0.721645 3.7737578,0.721602 1.2982342,1.4e-5 2.5561562,-0.240522 3.7737662,-0.721609 1.217694,-0.481031 2.307572,-1.202647 3.26969,-2.164765 z M 15.802842,15.79941 c -0.814799,0.814799 -1.728579,1.424806 -2.741368,1.829908 -1.012789,0.405101 -2.055446,0.607715 -3.1281062,0.607694 C 8.8607149,18.236984 7.8191891,18.033295 6.8087052,17.625888 5.7982284,17.218474 4.8855515,16.607336 4.0707524,15.792537 3.2558825,14.977667 2.6447655,14.065012 2.2373518,13.054535 1.8299381,12.044044 1.6239296,11.00249 1.6193192,9.9298646 1.614716,8.8572338 1.8161212,7.8156725 2.2235349,6.8051957 2.6309557,5.7947119 3.2420798,4.8820633 4.0569284,4.0672146 4.8717276,3.2524155 5.7843974,2.6412702 6.7948742,2.2338565 7.805351,1.8264427 8.8492386,1.6227111 9.9264588,1.6227253 c 1.0772212,1.41e-5 2.1222262,0.2025719 3.1350222,0.6076805 1.012789,0.4051015 1.926562,1.0151013 2.741432,1.8299711 0.814799,0.8147992 1.425951,1.7274619 1.833386,2.7379175 0.407364,1.0105263 0.611082,2.0520238 0.611082,3.1247042 0,1.0726814 -0.203718,2.1164424 -0.611153,3.1315644 -0.407364,1.015052 -1.018516,1.929977 -1.833386,2.744847 z m -5.310167,-0.586962 c 0.161129,-0.161129 0.237072,-0.352189 0.227908,-0.573117 l -0.0069,-3.915392 3.92918,-0.0069 c 0.225567,0.0045 0.414294,-0.06908 0.566181,-0.220971 0.151957,-0.151957 0.226769,-0.337219 0.224435,-0.5559274 -0.0023,-0.218708 -0.07941,-0.40397 -0.231294,-0.555857 C 15.050228,9.232327 14.863834,9.156384 14.642793,9.156384 h -3.92218 l -0.0069,-3.9429408 C 10.713646,4.9925487 10.639973,4.8084252 10.492661,4.6611136 10.340739,4.5091917 10.156594,4.4332343 9.9402268,4.4332414 c -0.216368,7.1e-6 -0.400498,0.07595 -0.552385,0.2278369 C 9.245077,4.8038431 9.1760492,4.9879596 9.1806878,5.2134984 l -0.020718,3.9567576 -3.929152,0.0069 c -0.2117643,-0.0092 -0.3959091,0.06445 -0.5524342,0.2209706 -0.1519148,0.151915 -0.2290178,0.3349 -0.2313229,0.54897 -0.00231,0.2140694 0.0725,0.3970614 0.2244144,0.5489764 0.1519219,0.151922 0.3360667,0.225574 0.5524343,0.220971 l 3.9291307,0.0069 0.0069,3.929138 c -0.00463,0.21634 0.069028,0.400491 0.220985,0.552449 0.1518867,0.151886 0.3371487,0.228961 0.5558567,0.231294 0.2187082,0.0023 0.4039772,-0.07249 0.5558922,-0.2244 z"
     fill="#3369f3"
     id="path228"
     style="stroke-width:1.00157;stroke-dasharray:none" />
</svg>
